<svg id="visual" viewBox="0 0 900 600" width="900" height="600" xmlns="http://www.w3.org/2000/svg" xmlns:xlink="http://www.w3.org/1999/xlink" version="1.1"><rect x="0" y="0" width="900" height="600" fill="#001220"></rect><defs><linearGradient id="grad1_0" x1="33.3%" y1="100%" x2="100%" y2="0%"><stop offset="20%" stop-color="#001220" stop-opacity="1"></stop><stop offset="80%" stop-color="#001220" stop-opacity="1"></stop></linearGradient></defs><defs><linearGradient id="grad2_0" x1="0%" y1="100%" x2="66.7%" y2="0%"><stop offset="20%" stop-color="#001220" stop-opacity="1"></stop><stop offset="80%" stop-color="#001220" stop-opacity="1"></stop></linearGradient></defs><g transform="translate(900, 600)"><path d="M-324.5 0C-322.9 -44.7 -321.3 -89.5 -299.8 -124.2C-278.3 -158.9 -237 -183.5 -201.5 -201.5C-166 -219.6 -136.3 -231 -103.7 -250.4C-71.1 -269.8 -35.5 -297.1 0 -324.5L0 0Z" fill="#124559"></path></g><g transform="translate(0, 0)"><path d="M324.5 0C307 37.2 289.4 74.4 276.2 114.4C263.1 154.5 254.3 197.4 229.5 229.5C204.6 261.5 163.8 282.5 122.8 296.6C81.9 310.6 41 317.5 0 324.5L0 0Z" fill="#124559"></path></g></svg>